<svg width="64" height="64" viewBox="0 0 64 64" fill="none" xmlns="http://www.w3.org/2000/svg">
  <rect x="4" y="4" width="56" height="56" rx="14" fill="#0F172A"/>
  <path d="M32 18C24.268 18 18 24.268 18 32C18 39.732 24.268 46 32 46C39.732 46 46 39.732 46 32C46 24.268 39.732 18 32 18ZM32 42C26.477 42 22 37.523 22 32C22 26.477 26.477 22 32 22C37.523 22 42 26.477 42 32C42 37.523 37.523 42 32 42Z" fill="#E2E8F0"/>
  <path d="M32 26.5C28.41 26.5 25.5 29.41 25.5 33C25.5 35.272 26.686 37.268 28.47 38.405C29.216 38.881 30.188 38.352 30.188 37.468C30.188 37.111 30.008 36.781 29.713 36.584C28.616 35.854 27.9 34.607 27.9 33.2C27.9 30.962 29.712 29.15 31.95 29.15H32.05C34.288 29.15 36.1 30.962 36.1 33.2C36.1 34.607 35.384 35.854 34.287 36.584C33.992 36.781 33.812 37.111 33.812 37.468C33.812 38.352 34.784 38.881 35.53 38.405C37.314 37.268 38.5 35.272 38.5 33C38.5 29.41 35.59 26.5 32 26.5Z" fill="#94A3B8"/>
</svg>

